<svg width="40" height="40" viewBox="0 0 40 40" fill="none" xmlns="http://www.w3.org/2000/svg">
<g clip-path="url(#clip0_0_1091)">
<path d="M33.3334 18.3334C32.9258 15.4004 31.5651 12.6828 29.4611 10.5992C27.357 8.51557 24.6263 7.18155 21.6895 6.80261C18.7527 6.42366 15.7727 7.02082 13.2087 8.5021C10.6447 9.98337 8.63877 12.2666 7.50002 15M6.66669 8.33335V15H13.3334" stroke="black" stroke-width="2" stroke-linecap="round" stroke-linejoin="round"/>
<path d="M6.66669 21.6667C7.07429 24.5997 8.43491 27.3173 10.539 29.4009C12.643 31.4845 15.3738 32.8185 18.3106 33.1974C21.2474 33.5764 24.2273 32.9792 26.7914 31.4979C29.3554 30.0167 31.3613 27.7335 32.5 25M33.3334 31.6667V25H26.6667" stroke="black" stroke-width="2" stroke-linecap="round" stroke-linejoin="round"/>
</g>
<defs>
<clipPath id="clip0_0_1091">
<rect width="40" height="40" fill="white"/>
</clipPath>
</defs>
</svg>
