<svg width="18" height="24" viewBox="0 0 18 24" fill="none" xmlns="http://www.w3.org/2000/svg">
<path d="M6.1875 20.25C6.49816 20.25 6.75 19.9142 6.75 19.5C6.75 19.0858 6.49816 18.75 6.1875 18.75C5.87684 18.75 5.625 19.0858 5.625 19.5C5.625 19.9142 5.87684 20.25 6.1875 20.25Z" stroke="black" stroke-width="1.5" stroke-linecap="round" stroke-linejoin="round"/>
<path d="M14.0625 20.25C14.3732 20.25 14.625 19.9142 14.625 19.5C14.625 19.0858 14.3732 18.75 14.0625 18.75C13.7518 18.75 13.5 19.0858 13.5 19.5C13.5 19.9142 13.7518 20.25 14.0625 20.25Z" stroke="black" stroke-width="1.5" stroke-linecap="round" stroke-linejoin="round"/>
<path d="M1.6875 3.75H3.9375L5.625 16.5H14.625" stroke="black" stroke-width="1.5" stroke-linecap="round" stroke-linejoin="round"/>
<path d="M5.625 12.5H14.3944C14.4594 12.5001 14.5225 12.4701 14.5728 12.4151C14.6231 12.3601 14.6576 12.2836 14.6704 12.1986L15.6829 5.44859C15.691 5.39417 15.69 5.338 15.6799 5.28414C15.6699 5.23029 15.6509 5.18009 15.6245 5.13717C15.5981 5.09426 15.5649 5.05969 15.5273 5.03597C15.4896 5.01225 15.4485 4.99996 15.4069 5H4.5" stroke="black" stroke-width="1.5" stroke-linecap="round" stroke-linejoin="round"/>
</svg>
